C:\Users\israe\Dropbox\PhDWork\ExperimentalData\subject14\055\P14S055W04_filtered35.mot
nRows=6
nColumns=28

name C:\Users\israe\Dropbox\PhDWork\ExperimentalData\subject14\055\P14S055W04_filtered35.mot
datacolumns 28
datarows 6
range 2.3770000000 2.3820000000
endheader
time	ground_force_1_vx	ground_force_1_vy	ground_force_1_vz	ground_force_1_px	ground_force_1_py	ground_force_1_pz	ground_moment_1_mx	ground_moment_1_my	ground_moment_1_mz	ground_force_2_vx	ground_force_2_vy	ground_force_2_vz	ground_force_2_px	ground_force_2_py	ground_force_2_pz	ground_moment_2_mx	ground_moment_2_my	ground_moment_2_mz	ground_force_3_vx	ground_force_3_vy	ground_force_3_vz	ground_force_3_px	ground_force_3_py	ground_force_3_pz	ground_moment_3_mx	ground_moment_3_my	ground_moment_3_mz
        2.3770000000	        0.0000000000	        0.0000000000	        0.0000000000	        0.1988394955	        0.0000558755	       -0.3004071329	        0.0000000000	        0.0000000000	        0.0000000000	        0.0000000000	        0.0000000000	        0.0000000000	        0.2029003516	       -0.0000795827	        0.4543649445	        0.0000000000	        0.0000000000	       -0.0000000000	      -26.0183641340	      449.0340580989	      -69.4284942856	        0.2076431971	        0.0000770316	        1.3583900146	     -117.2296594996	        2.1475091683	       61.0074006512	
        2.3780000000	        0.0000000000	        0.0000000000	        0.0000000000	        0.1988394955	        0.0000558755	       -0.3004071329	        0.0000000000	        0.0000000000	        0.0000000000	        0.0000000000	        0.0000000000	        0.0000000000	        0.2029003516	       -0.0000795827	        0.4543649445	        0.0000000000	        0.0000000000	       -0.0000000000	      -26.3828806328	      447.3469921728	      -69.1506327941	        0.2076431971	        0.0000770316	        1.3583900146	     -116.9914980147	        2.0964133538	       60.8549127099	
        2.3790000000	        0.0000000000	        0.0000000000	        0.0000000000	        0.1988394955	        0.0000558755	       -0.3004071329	        0.0000000000	        0.0000000000	        0.0000000000	        0.0000000000	        0.0000000000	        0.0000000000	        0.2029003516	       -0.0000795827	        0.4543649445	        0.0000000000	        0.0000000000	       -0.0000000000	      -26.7457339488	      445.6496320662	      -68.8500672011	        0.2076431971	        0.0000770316	        1.3583900146	     -116.7413967304	        2.0470350089	       60.6953503850	
        2.3800000000	        0.0000000000	        0.0000000000	        0.0000000000	        0.1988394955	        0.0000558755	       -0.3004071329	        0.0000000000	        0.0000000000	        0.0000000000	        0.0000000000	        0.0000000000	        0.0000000000	        0.2029003516	       -0.0000795827	        0.4543649445	        0.0000000000	        0.0000000000	       -0.0000000000	      -27.0965216697	      443.9510736709	      -68.5356888254	        0.2076431971	        0.0000770316	        1.3583900146	     -116.4788224405	        1.9988829087	       60.5290698487	
        2.3810000000	        0.0000000000	        0.0000000000	        0.0000000000	        0.1988394955	        0.0000558755	       -0.3004071329	        0.0000000000	        0.0000000000	        0.0000000000	        0.0000000000	        0.0000000000	        0.0000000000	        0.2029003516	       -0.0000795827	        0.4543649445	        0.0000000000	        0.0000000000	       -0.0000000000	      -27.4246862690	      442.2618214035	      -68.2168368147	        0.2076431971	        0.0000770316	        1.3583900146	     -116.2028356176	        1.9514328728	       60.3566312884	
        2.3820000000	        0.0000000000	        0.0000000000	       -0.0000000000	        0.1988394955	        0.0000558755	       -0.3004071329	        0.0000000000	        0.0000000000	        0.0000000000	        0.0000000000	        0.0000000000	        0.0000000000	        0.2029003516	       -0.0000795827	        0.4543649445	        0.0000000000	        0.0000000000	       -0.0000000000	      -27.7210627428	      440.5909236519	      -67.9014676752	        0.2076431971	        0.0000770316	        1.3583900146	     -115.9125178406	        1.9043848273	       60.1789479374	
